# xmcd
#
# Track frame offsets:
#	150
#	13157
#	21932
#	31417
#	41850
#	52717
#	63140
#	75827
#	90520
#	100657
#	110922
#	123205
#	133892
#	148012
#	161765
#	176810
#	189207
#	202340
#	211780
#	223600
#
# Disc length: 3181 seconds
#
# Revision: 1
# Processed by: cddbd v1.5.1PL0 Copyright (c) Steve Scherf et al.
# Submitted via: EasyCDDAExtractor 7.0.6.1
#
DISCID=170c6b14
DTITLE=Hank Williams - We Remember Hank Williams Disc 2
DYEAR=1900
DGENRE=Country
TTITLE0=I'm So Lonesome I Could Cry
TTITLE1=Why Don't You Love Me
TTITLE2=Alone And Foresaken
TTITLE3=Kaw Liga
TTITLE4=Minni Ha Cha
TTITLE5=Ramblin' Man
TTITLE6=A House Without Love
TTITLE7=I Could Never Be Ashamed Of You
TTITLE8=A House Of Gold
TTITLE9=Let's Turn Back The Years
TTITLE10=I Can't Help It
TTITLE11=When The Book Of Life Is Read
TTITLE12=Threre'll Be No Teardrops Tonight
TTITLE13=Move It Over
TTITLE14=Why Should We Try Anymore
TTITLE15=If You've Got The Money
TTITLE16=My Son Calls Another Man Daddy
TTITLE17=I'm Gonna Sing
TTITLE18=You're Cheatin Heart
TTITLE19=The Little House We Built
EXTD=
EXTT0=
EXTT1=
EXTT2=
EXTT3=
EXTT4=
EXTT5=
EXTT6=
EXTT7=
EXTT8=
EXTT9=
EXTT10=
EXTT11=
EXTT12=
EXTT13=
EXTT14=
EXTT15=
EXTT16=
EXTT17=
EXTT18=
EXTT19=
PLAYORDER=
